<svg xmlns="http://www.w3.org/2000/svg" xmlns:xlink="http://www.w3.org/1999/xlink" width="1590" height="868.4"><rect width="1590" height="868.4" rx="0" ry="0" class="a"/><svg height="868.4" viewBox="0 0 159 86.84" width="1590" xmlns="http://www.w3.org/2000/svg" xmlns:xlink="http://www.w3.org/1999/xlink"><style>@keyframes l{0%{transform:translateX(0)}6.4%{transform:translateX(-159px)}7.59%{transform:translateX(-318px)}8.02%{transform:translateX(-477px)}8.19%{transform:translateX(-795px)}10.44%{transform:translateX(-1113px)}11.13%{transform:translateX(-1272px)}12.06%{transform:translateX(-1431px)}12.36%{transform:translateX(-1590px)}12.75%{transform:translateX(-1749px)}13.57%{transform:translateX(-1908px)}13.58%{transform:translateX(-2067px)}13.94%{transform:translateX(-2226px)}14.44%{transform:translateX(-2385px)}14.98%{transform:translateX(-2544px)}15.58%{transform:translateX(-2703px)}19.11%{transform:translateX(-2862px)}19.93%{transform:translateX(-3021px)}21.33%{transform:translateX(-3180px)}22.6%{transform:translateX(-3339px)}22.87%{transform:translateX(-3498px)}23.69%{transform:translateX(-3657px)}24.17%{transform:translateX(-3816px)}25.47%{transform:translateX(-3975px)}27.01%{transform:translateX(-4134px)}27.64%{transform:translateX(-4293px)}28.57%{transform:translateX(-4452px)}28.84%{transform:translateX(-4611px)}29.38%{transform:translateX(-5088px)}33.15%{transform:translateX(-5247px)}33.17%{transform:translateX(-5406px)}34.35%{transform:translateX(-5565px)}34.58%{transform:translateX(-5724px)}34.77%{transform:translateX(-6042px)}39.06%{transform:translateX(-6360px)}39.74%{transform:translateX(-6519px)}41.46%{transform:translateX(-6678px)}41.47%{transform:translateX(-6837px)}42.39%{transform:translateX(-6996px)}43.37%{transform:translateX(-7155px)}43.75%{transform:translateX(-7314px)}44.3%{transform:translateX(-7473px)}44.75%{transform:translateX(-7632px)}45.18%{transform:translateX(-7791px)}46.03%{transform:translateX(-7950px)}47.19%{transform:translateX(-8109px)}48.54%{transform:translateX(-8268px)}49.69%{transform:translateX(-8427px)}50.01%{transform:translateX(-8586px)}50.82%{transform:translateX(-8745px)}51.44%{transform:translateX(-8904px)}60.37%{transform:translateX(-9063px)}61.62%{transform:translateX(-9222px)}62.28%{transform:translateX(-9381px)}63.19%{transform:translateX(-9540px)}63.46%{transform:translateX(-9699px)}64.78%{transform:translateX(-9858px)}65.7%{transform:translateX(-10176px)}65.76%{transform:translateX(-10335px)}66.65%{transform:translateX(-10494px)}67.85%{transform:translateX(-10653px)}68.09%{transform:translateX(-10812px)}68.4%{transform:translateX(-11130px)}to{transform:translateX(-11289px)}}.a{fill:#282d35}.d,.e,.f{fill:#b9c0cb;white-space:pre}.e,.f{fill:#a8cc8c;font-weight:700}.f{fill:#e88388}.g,.h,.i,.n{fill:#a8cc8c;white-space:pre}.h,.i,.n{fill:#6f7783}.i,.n{fill:#66c2cd}.n{fill:#b9c0cb;text-decoration:underline}</style><g font-family="Monaco,Consolas,Menlo,'Bitstream Vera Sans Mono','Powerline Symbols',monospace" font-size="1.67"><defs><symbol id="1"><text y="1.67" style="white-space:pre" fill="#66c2cd" font-weight="700">~</text><text x="2.004" y="1.67" class="d">via</text><text x="6.012" y="1.67" class="e"></text><text x="8.016" y="1.67" class="e">v16.0.0</text></symbol><symbol id="2"><text y="1.67" class="e">❯</text></symbol><symbol id="3"><text y="1.67" class="e">❯</text><text x="2.004" y="1.67" class="f">m</text></symbol><symbol id="4"><text y="1.67" class="e">❯</text><text x="2.004" y="1.67" class="g">mgre</text><text x="7.014" y="1.67" class="h">clone</text><text x="13.026" y="1.67" class="h">https://gitlab.com/zxf4399/mgre.git</text></symbol><symbol id="5"><text y="1.67" class="e">❯</text><text x="2.004" y="1.67" class="g">mgre</text><text x="7.014" y="1.67" class="d">find</text><text x="12.024" y="1.67" class="h">samples</text></symbol><symbol id="6"><text y="1.67" class="e">❯</text><text x="2.004" y="1.67" class="g">mgre</text><text x="7.014" y="1.67" class="d">find</text><text x="12.024" y="1.67" class="d">zxf4399/mgre</text></symbol><symbol id="7"><text y="1.67" class="i">/Users/peter.zheng/.mgre/github.com/zxf4399/mgre</text></symbol><symbol id="8"><text y="1.67" class="i">/Users/peter.zheng/.mgre/gitlab.com/zxf4399/mgre</text></symbol><symbol id="9"><text y="1.67" class="e">❯</text><text x="2.004" y="1.67" class="g">mgre</text><text x="7.014" y="1.67" class="h">find</text><text x="12.024" y="1.67" class="h">zxf4399/mgre</text></symbol><symbol id="10"><text y="1.67" class="e">❯</text><text x="2.004" y="1.67" class="g">mgre</text><text x="7.014" y="1.67" class="d">find</text><text x="12.024" y="1.67" class="h">zxf4399/mgre</text></symbol><symbol id="11"><text y="1.67" class="e">❯</text><text x="2.004" y="1.67" class="g">mgre</text><text x="7.014" y="1.67" class="d">find</text><text x="12.024" y="1.67" class="d">zxf4399/mgre1</text></symbol><symbol id="a"><path fill="transparent" d="M0 0h159v40H0z"/></symbol><symbol id="b"><path fill="#6f7683" d="M0 0h1.102v2.171H0z"/></symbol></defs><path class="a" d="M0 0h159v86.84H0z"/><g style="animation-duration:20.72136s;animation-iteration-count:infinite;animation-name:l;animation-timing-function:steps(1,end)"><svg width="11448"><svg><use xlink:href="#a"/><use xlink:href="#b" x="-.004"/></svg><svg x="159"><use xlink:href="#a"/><use xlink:href="#b" x="-.004"/></svg><svg x="318"><use xlink:href="#a"/><use xlink:href="#b" x="-.004"/></svg><svg x="477"><use xlink:href="#a"/><use xlink:href="#b" x="1.996" y="4.317"/><use xlink:href="#1" y="2.171"/><use xlink:href="#2" y="4.342"/></svg><svg x="636"><use xlink:href="#a"/><use xlink:href="#b" x="1.996" y="4.317"/><use xlink:href="#1" y="2.171"/><use xlink:href="#2" y="4.342"/></svg><svg x="795"><use xlink:href="#a"/><use xlink:href="#b" x="1.996" y="4.317"/><use xlink:href="#1" y="2.171"/><use xlink:href="#2" y="4.342"/></svg><svg x="954"><use xlink:href="#a"/><use xlink:href="#b" x="2.996" y="4.317"/><use xlink:href="#1" y="2.171"/><use xlink:href="#3" y="4.342"/></svg><svg x="1113"><use xlink:href="#a"/><use xlink:href="#b" x="2.996" y="4.317"/><use xlink:href="#1" y="2.171"/><text y="6.012" class="e">❯</text><text x="2.004" y="6.012" class="f">m</text><text x="3.006" y="6.012" class="h">gre</text><text x="7.014" y="6.012" class="h">clone</text><text x="13.026" y="6.012" class="h">https://gitlab.com/zxf4399/mgre.git</text></svg><svg x="1272"><use xlink:href="#a"/><use xlink:href="#b" x="3.996" y="4.317"/><use xlink:href="#1" y="2.171"/><text y="6.012" class="e">❯</text><text x="2.004" y="6.012" class="g">mg</text><text x="4.008" y="6.012" class="h">re</text><text x="7.014" y="6.012" class="h">clone</text><text x="13.026" y="6.012" class="h">https://gitlab.com/zxf4399/mgre.git</text></svg><svg x="1431"><use xlink:href="#a"/><use xlink:href="#b" x="4.996" y="4.317"/><use xlink:href="#1" y="2.171"/><text y="6.012" class="e">❯</text><text x="2.004" y="6.012" class="f">mgr</text><text x="5.01" y="6.012" class="h">e</text><text x="7.014" y="6.012" class="h">clone</text><text x="13.026" y="6.012" class="h">https://gitlab.com/zxf4399/mgre.git</text></svg><svg x="1590"><use xlink:href="#a"/><use xlink:href="#b" x="5.996" y="4.317"/><use xlink:href="#1" y="2.171"/><use xlink:href="#4" y="4.342"/></svg><svg x="1749"><use xlink:href="#a"/><use xlink:href="#b" x="6.996" y="4.317"/><use xlink:href="#1" y="2.171"/><use xlink:href="#4" y="4.342"/></svg><svg x="1908"><use xlink:href="#a"/><use xlink:href="#b" x="7.996" y="4.317"/><use xlink:href="#1" y="2.171"/><text y="6.012" class="e">❯</text><text x="2.004" y="6.012" class="g">mgre</text><text x="7.014" y="6.012" class="n">f</text></svg><svg x="2067"><use xlink:href="#a"/><use xlink:href="#b" x="7.996" y="4.317"/><use xlink:href="#1" y="2.171"/><text y="6.012" class="e">❯</text><text x="2.004" y="6.012" class="g">mgre</text><text x="7.014" y="6.012" class="n">f</text><text x="8.016" y="6.012" class="h">ind</text><text x="12.024" y="6.012" class="h">samples</text></svg><svg x="2226"><use xlink:href="#a"/><use xlink:href="#b" x="8.996" y="4.317"/><use xlink:href="#1" y="2.171"/><text y="6.012" class="e">❯</text><text x="2.004" y="6.012" class="g">mgre</text><text x="7.014" y="6.012" class="d">fi</text><text x="9.018" y="6.012" class="h">nd</text><text x="12.024" y="6.012" class="h">samples</text></svg><svg x="2385"><use xlink:href="#a"/><use xlink:href="#b" x="9.996" y="4.317"/><use xlink:href="#1" y="2.171"/><text y="6.012" class="e">❯</text><text x="2.004" y="6.012" class="g">mgre</text><text x="7.014" y="6.012" class="d">fin</text><text x="10.02" y="6.012" class="h">d</text><text x="12.024" y="6.012" class="h">samples</text></svg><svg x="2544"><use xlink:href="#a"/><use xlink:href="#b" x="10.996" y="4.317"/><use xlink:href="#1" y="2.171"/><use xlink:href="#5" y="4.342"/></svg><svg x="2703"><use xlink:href="#a"/><use xlink:href="#b" x="11.996" y="4.317"/><use xlink:href="#1" y="2.171"/><use xlink:href="#5" y="4.342"/></svg><svg x="2862"><use xlink:href="#a"/><use xlink:href="#b" x="12.996" y="4.317"/><use xlink:href="#1" y="2.171"/><text y="6.012" class="e">❯</text><text x="2.004" y="6.012" class="g">mgre</text><text x="7.014" y="6.012" class="d">find</text><text x="12.024" y="6.012" class="n">z</text></svg><svg x="3021"><use xlink:href="#a"/><use xlink:href="#b" x="13.996" y="4.317"/><use xlink:href="#1" y="2.171"/><text y="6.012" class="e">❯</text><text x="2.004" y="6.012" class="g">mgre</text><text x="7.014" y="6.012" class="d">find</text><text x="12.024" y="6.012" class="d">zx</text></svg><svg x="3180"><use xlink:href="#a"/><use xlink:href="#b" x="14.996" y="4.317"/><use xlink:href="#1" y="2.171"/><text y="6.012" class="e">❯</text><text x="2.004" y="6.012" class="g">mgre</text><text x="7.014" y="6.012" class="d">find</text><text x="12.024" y="6.012" class="d">zxf</text></svg><svg x="3339"><use xlink:href="#a"/><use xlink:href="#b" x="15.996" y="4.317"/><use xlink:href="#1" y="2.171"/><text y="6.012" class="e">❯</text><text x="2.004" y="6.012" class="g">mgre</text><text x="7.014" y="6.012" class="d">find</text><text x="12.024" y="6.012" class="d">zxf4</text></svg><svg x="3498"><use xlink:href="#a"/><use xlink:href="#b" x="16.996" y="4.317"/><use xlink:href="#1" y="2.171"/><text y="6.012" class="e">❯</text><text x="2.004" y="6.012" class="g">mgre</text><text x="7.014" y="6.012" class="d">find</text><text x="12.024" y="6.012" class="d">zxf43</text></svg><svg x="3657"><use xlink:href="#a"/><use xlink:href="#b" x="17.996" y="4.317"/><use xlink:href="#1" y="2.171"/><text y="6.012" class="e">❯</text><text x="2.004" y="6.012" class="g">mgre</text><text x="7.014" y="6.012" class="d">find</text><text x="12.024" y="6.012" class="d">zxf439</text></svg><svg x="3816"><use xlink:href="#a"/><use xlink:href="#b" x="18.996" y="4.317"/><use xlink:href="#1" y="2.171"/><text y="6.012" class="e">❯</text><text x="2.004" y="6.012" class="g">mgre</text><text x="7.014" y="6.012" class="d">find</text><text x="12.024" y="6.012" class="d">zxf4399</text></svg><svg x="3975"><use xlink:href="#a"/><use xlink:href="#b" x="19.996" y="4.317"/><use xlink:href="#1" y="2.171"/><text y="6.012" class="e">❯</text><text x="2.004" y="6.012" class="g">mgre</text><text x="7.014" y="6.012" class="d">find</text><text x="12.024" y="6.012" class="d">zxf4399/</text></svg><svg x="4134"><use xlink:href="#a"/><use xlink:href="#b" x="20.996" y="4.317"/><use xlink:href="#1" y="2.171"/><text y="6.012" class="e">❯</text><text x="2.004" y="6.012" class="g">mgre</text><text x="7.014" y="6.012" class="d">find</text><text x="12.024" y="6.012" class="d">zxf4399/m</text></svg><svg x="4293"><use xlink:href="#a"/><use xlink:href="#b" x="21.996" y="4.317"/><use xlink:href="#1" y="2.171"/><text y="6.012" class="e">❯</text><text x="2.004" y="6.012" class="g">mgre</text><text x="7.014" y="6.012" class="d">find</text><text x="12.024" y="6.012" class="d">zxf4399/mg</text></svg><svg x="4452"><use xlink:href="#a"/><use xlink:href="#b" x="22.996" y="4.317"/><use xlink:href="#1" y="2.171"/><text y="6.012" class="e">❯</text><text x="2.004" y="6.012" class="g">mgre</text><text x="7.014" y="6.012" class="d">find</text><text x="12.024" y="6.012" class="d">zxf4399/mgr</text></svg><svg x="4611"><use xlink:href="#a"/><use xlink:href="#b" x="23.996" y="4.317"/><use xlink:href="#1" y="2.171"/><use xlink:href="#6" y="4.342"/></svg><svg x="4770"><use xlink:href="#a"/><use xlink:href="#b" x="23.996" y="4.317"/><use xlink:href="#1" y="2.171"/><use xlink:href="#6" y="4.342"/></svg><svg x="4929"><use xlink:href="#a"/><use xlink:href="#b" x="-.004" y="6.488"/><use xlink:href="#1" y="2.171"/><use xlink:href="#6" y="4.342"/></svg><svg x="5088"><use xlink:href="#a"/><use xlink:href="#b" x="-.004" y="6.488"/><use xlink:href="#1" y="2.171"/><use xlink:href="#6" y="4.342"/></svg><svg x="5247"><use xlink:href="#a"/><use xlink:href="#b" x="-.004" y="10.83"/><use xlink:href="#1" y="2.171"/><use xlink:href="#6" y="4.342"/><use xlink:href="#7" y="6.513"/><use xlink:href="#8" y="8.684"/></svg><svg x="5406"><use xlink:href="#a"/><use xlink:href="#b" x="-.004" y="10.83"/><use xlink:href="#1" y="2.171"/><use xlink:href="#6" y="4.342"/><use xlink:href="#7" y="6.513"/><use xlink:href="#8" y="8.684"/></svg><svg x="5565"><use xlink:href="#a"/><use xlink:href="#b" x="-.004" y="10.83"/><use xlink:href="#1" y="2.171"/><use xlink:href="#6" y="4.342"/><use xlink:href="#7" y="6.513"/><use xlink:href="#8" y="8.684"/></svg><svg x="5724"><use xlink:href="#a"/><use xlink:href="#b" x="1.996" y="15.172"/><use xlink:href="#1" y="2.171"/><use xlink:href="#6" y="4.342"/><use xlink:href="#7" y="6.513"/><use xlink:href="#8" y="8.684"/><use xlink:href="#1" y="13.026"/><use xlink:href="#2" y="15.197"/></svg><svg x="5883"><use xlink:href="#a"/><use xlink:href="#b" x="1.996" y="15.172"/><use xlink:href="#1" y="2.171"/><use xlink:href="#6" y="4.342"/><use xlink:href="#7" y="6.513"/><use xlink:href="#8" y="8.684"/><use xlink:href="#1" y="13.026"/><use xlink:href="#2" y="15.197"/></svg><svg x="6042"><use xlink:href="#a"/><use xlink:href="#b" x="1.996" y="15.172"/><use xlink:href="#1" y="2.171"/><use xlink:href="#6" y="4.342"/><use xlink:href="#7" y="6.513"/><use xlink:href="#8" y="8.684"/><use xlink:href="#1" y="13.026"/><use xlink:href="#2" y="15.197"/></svg><svg x="6201"><use xlink:href="#a"/><use xlink:href="#b" x="2.996" y="15.172"/><use xlink:href="#1" y="2.171"/><use xlink:href="#6" y="4.342"/><use xlink:href="#7" y="6.513"/><use xlink:href="#8" y="8.684"/><use xlink:href="#1" y="13.026"/><use xlink:href="#3" y="15.197"/></svg><svg x="6360"><use xlink:href="#a"/><use xlink:href="#b" x="2.996" y="15.172"/><use xlink:href="#1" y="2.171"/><use xlink:href="#6" y="4.342"/><use xlink:href="#7" y="6.513"/><use xlink:href="#8" y="8.684"/><use xlink:href="#1" y="13.026"/><text y="16.867" class="e">❯</text><text x="2.004" y="16.867" class="f">m</text><text x="3.006" y="16.867" class="h">gre</text><text x="7.014" y="16.867" class="h">find</text><text x="12.024" y="16.867" class="h">zxf4399/mgre</text></svg><svg x="6519"><use xlink:href="#a"/><use xlink:href="#b" x="3.996" y="15.172"/><use xlink:href="#1" y="2.171"/><use xlink:href="#6" y="4.342"/><use xlink:href="#7" y="6.513"/><use xlink:href="#8" y="8.684"/><use xlink:href="#1" y="13.026"/><text y="16.867" class="e">❯</text><text x="2.004" y="16.867" class="g">mg</text><text x="4.008" y="16.867" class="h">re</text><text x="7.014" y="16.867" class="h">find</text><text x="12.024" y="16.867" class="h">zxf4399/mgre</text></svg><svg x="6678"><use xlink:href="#a"/><use xlink:href="#b" x="4.996" y="15.172"/><use xlink:href="#1" y="2.171"/><use xlink:href="#6" y="4.342"/><use xlink:href="#7" y="6.513"/><use xlink:href="#8" y="8.684"/><use xlink:href="#1" y="13.026"/><text y="16.867" class="e">❯</text><text x="2.004" y="16.867" class="f">mgr</text><text x="5.01" y="16.867" class="h">e</text><text x="7.014" y="16.867" class="h">find</text><text x="12.024" y="16.867" class="h">zxf4399/mgre</text></svg><svg x="6837"><use xlink:href="#a"/><use xlink:href="#b" x="5.996" y="15.172"/><use xlink:href="#1" y="2.171"/><use xlink:href="#6" y="4.342"/><use xlink:href="#7" y="6.513"/><use xlink:href="#8" y="8.684"/><use xlink:href="#1" y="13.026"/><use xlink:href="#9" y="15.197"/></svg><svg x="6996"><use xlink:href="#a"/><use xlink:href="#b" x="6.996" y="15.172"/><use xlink:href="#1" y="2.171"/><use xlink:href="#6" y="4.342"/><use xlink:href="#7" y="6.513"/><use xlink:href="#8" y="8.684"/><use xlink:href="#1" y="13.026"/><use xlink:href="#9" y="15.197"/></svg><svg x="7155"><use xlink:href="#a"/><use xlink:href="#b" x="7.996" y="15.172"/><use xlink:href="#1" y="2.171"/><use xlink:href="#6" y="4.342"/><use xlink:href="#7" y="6.513"/><use xlink:href="#8" y="8.684"/><use xlink:href="#1" y="13.026"/><text y="16.867" class="e">❯</text><text x="2.004" y="16.867" class="g">mgre</text><text x="7.014" y="16.867" class="n">f</text><text x="8.016" y="16.867" class="h">ind</text><text x="12.024" y="16.867" class="h">zxf4399/mgre</text></svg><svg x="7314"><use xlink:href="#a"/><use xlink:href="#b" x="8.996" y="15.172"/><use xlink:href="#1" y="2.171"/><use xlink:href="#6" y="4.342"/><use xlink:href="#7" y="6.513"/><use xlink:href="#8" y="8.684"/><use xlink:href="#1" y="13.026"/><text y="16.867" class="e">❯</text><text x="2.004" y="16.867" class="g">mgre</text><text x="7.014" y="16.867" class="d">fi</text><text x="9.018" y="16.867" class="h">nd</text><text x="12.024" y="16.867" class="h">zxf4399/mgre</text></svg><svg x="7473"><use xlink:href="#a"/><use xlink:href="#b" x="9.996" y="15.172"/><use xlink:href="#1" y="2.171"/><use xlink:href="#6" y="4.342"/><use xlink:href="#7" y="6.513"/><use xlink:href="#8" y="8.684"/><use xlink:href="#1" y="13.026"/><text y="16.867" class="e">❯</text><text x="2.004" y="16.867" class="g">mgre</text><text x="7.014" y="16.867" class="d">fin</text><text x="10.02" y="16.867" class="h">d</text><text x="12.024" y="16.867" class="h">zxf4399/mgre</text></svg><svg x="7632"><use xlink:href="#a"/><use xlink:href="#b" x="10.996" y="15.172"/><use xlink:href="#1" y="2.171"/><use xlink:href="#6" y="4.342"/><use xlink:href="#7" y="6.513"/><use xlink:href="#8" y="8.684"/><use xlink:href="#1" y="13.026"/><use xlink:href="#10" y="15.197"/></svg><svg x="7791"><use xlink:href="#a"/><use xlink:href="#b" x="11.996" y="15.172"/><use xlink:href="#1" y="2.171"/><use xlink:href="#6" y="4.342"/><use xlink:href="#7" y="6.513"/><use xlink:href="#8" y="8.684"/><use xlink:href="#1" y="13.026"/><use xlink:href="#10" y="15.197"/></svg><svg x="7950"><use xlink:href="#a"/><use xlink:href="#b" x="12.996" y="15.172"/><use xlink:href="#1" y="2.171"/><use xlink:href="#6" y="4.342"/><use xlink:href="#7" y="6.513"/><use xlink:href="#8" y="8.684"/><use xlink:href="#1" y="13.026"/><text y="16.867" class="e">❯</text><text x="2.004" y="16.867" class="g">mgre</text><text x="7.014" y="16.867" class="d">find</text><text x="12.024" y="16.867" class="n">z</text><text x="13.026" y="16.867" class="h">xf4399/mgre</text></svg><svg x="8109"><use xlink:href="#a"/><use xlink:href="#b" x="13.996" y="15.172"/><use xlink:href="#1" y="2.171"/><use xlink:href="#6" y="4.342"/><use xlink:href="#7" y="6.513"/><use xlink:href="#8" y="8.684"/><use xlink:href="#1" y="13.026"/><text y="16.867" class="e">❯</text><text x="2.004" y="16.867" class="g">mgre</text><text x="7.014" y="16.867" class="d">find</text><text x="12.024" y="16.867" class="d">zx</text><text x="14.028" y="16.867" class="h">f4399/mgre</text></svg><svg x="8268"><use xlink:href="#a"/><use xlink:href="#b" x="14.996" y="15.172"/><use xlink:href="#1" y="2.171"/><use xlink:href="#6" y="4.342"/><use xlink:href="#7" y="6.513"/><use xlink:href="#8" y="8.684"/><use xlink:href="#1" y="13.026"/><text y="16.867" class="e">❯</text><text x="2.004" y="16.867" class="g">mgre</text><text x="7.014" y="16.867" class="d">find</text><text x="12.024" y="16.867" class="d">zxf</text><text x="15.03" y="16.867" class="h">4399/mgre</text></svg><svg x="8427"><use xlink:href="#a"/><use xlink:href="#b" x="15.996" y="15.172"/><use xlink:href="#1" y="2.171"/><use xlink:href="#6" y="4.342"/><use xlink:href="#7" y="6.513"/><use xlink:href="#8" y="8.684"/><use xlink:href="#1" y="13.026"/><text y="16.867" class="e">❯</text><text x="2.004" y="16.867" class="g">mgre</text><text x="7.014" y="16.867" class="d">find</text><text x="12.024" y="16.867" class="d">zxf4</text><text x="16.032" y="16.867" class="h">399/mgre</text></svg><svg x="8586"><use xlink:href="#a"/><use xlink:href="#b" x="16.996" y="15.172"/><use xlink:href="#1" y="2.171"/><use xlink:href="#6" y="4.342"/><use xlink:href="#7" y="6.513"/><use xlink:href="#8" y="8.684"/><use xlink:href="#1" y="13.026"/><text y="16.867" class="e">❯</text><text x="2.004" y="16.867" class="g">mgre</text><text x="7.014" y="16.867" class="d">find</text><text x="12.024" y="16.867" class="d">zxf43</text><text x="17.034" y="16.867" class="h">99/mgre</text></svg><svg x="8745"><use xlink:href="#a"/><use xlink:href="#b" x="17.996" y="15.172"/><use xlink:href="#1" y="2.171"/><use xlink:href="#6" y="4.342"/><use xlink:href="#7" y="6.513"/><use xlink:href="#8" y="8.684"/><use xlink:href="#1" y="13.026"/><text y="16.867" class="e">❯</text><text x="2.004" y="16.867" class="g">mgre</text><text x="7.014" y="16.867" class="d">find</text><text x="12.024" y="16.867" class="d">zxf439</text><text x="18.036" y="16.867" class="h">9/mgre</text></svg><svg x="8904"><use xlink:href="#a"/><use xlink:href="#b" x="18.996" y="15.172"/><use xlink:href="#1" y="2.171"/><use xlink:href="#6" y="4.342"/><use xlink:href="#7" y="6.513"/><use xlink:href="#8" y="8.684"/><use xlink:href="#1" y="13.026"/><text y="16.867" class="e">❯</text><text x="2.004" y="16.867" class="g">mgre</text><text x="7.014" y="16.867" class="d">find</text><text x="12.024" y="16.867" class="d">zxf4399</text><text x="19.038" y="16.867" class="h">/mgre</text></svg><svg x="9063"><use xlink:href="#a"/><use xlink:href="#b" x="19.996" y="15.172"/><use xlink:href="#1" y="2.171"/><use xlink:href="#6" y="4.342"/><use xlink:href="#7" y="6.513"/><use xlink:href="#8" y="8.684"/><use xlink:href="#1" y="13.026"/><text y="16.867" class="e">❯</text><text x="2.004" y="16.867" class="g">mgre</text><text x="7.014" y="16.867" class="d">find</text><text x="12.024" y="16.867" class="d">zxf4399/</text><text x="20.04" y="16.867" class="h">mgre</text></svg><svg x="9222"><use xlink:href="#a"/><use xlink:href="#b" x="20.996" y="15.172"/><use xlink:href="#1" y="2.171"/><use xlink:href="#6" y="4.342"/><use xlink:href="#7" y="6.513"/><use xlink:href="#8" y="8.684"/><use xlink:href="#1" y="13.026"/><text y="16.867" class="e">❯</text><text x="2.004" y="16.867" class="g">mgre</text><text x="7.014" y="16.867" class="d">find</text><text x="12.024" y="16.867" class="d">zxf4399/m</text><text x="21.042" y="16.867" class="h">gre</text></svg><svg x="9381"><use xlink:href="#a"/><use xlink:href="#b" x="21.996" y="15.172"/><use xlink:href="#1" y="2.171"/><use xlink:href="#6" y="4.342"/><use xlink:href="#7" y="6.513"/><use xlink:href="#8" y="8.684"/><use xlink:href="#1" y="13.026"/><text y="16.867" class="e">❯</text><text x="2.004" y="16.867" class="g">mgre</text><text x="7.014" y="16.867" class="d">find</text><text x="12.024" y="16.867" class="d">zxf4399/mg</text><text x="22.044" y="16.867" class="h">re</text></svg><svg x="9540"><use xlink:href="#a"/><use xlink:href="#b" x="22.996" y="15.172"/><use xlink:href="#1" y="2.171"/><use xlink:href="#6" y="4.342"/><use xlink:href="#7" y="6.513"/><use xlink:href="#8" y="8.684"/><use xlink:href="#1" y="13.026"/><text y="16.867" class="e">❯</text><text x="2.004" y="16.867" class="g">mgre</text><text x="7.014" y="16.867" class="d">find</text><text x="12.024" y="16.867" class="d">zxf4399/mgr</text><text x="23.046" y="16.867" class="h">e</text></svg><svg x="9699"><use xlink:href="#a"/><use xlink:href="#b" x="23.996" y="15.172"/><use xlink:href="#1" y="2.171"/><use xlink:href="#6" y="4.342"/><use xlink:href="#7" y="6.513"/><use xlink:href="#8" y="8.684"/><use xlink:href="#1" y="13.026"/><use xlink:href="#6" y="15.197"/></svg><svg x="9858"><use xlink:href="#a"/><use xlink:href="#b" x="24.996" y="15.172"/><use xlink:href="#1" y="2.171"/><use xlink:href="#6" y="4.342"/><use xlink:href="#7" y="6.513"/><use xlink:href="#8" y="8.684"/><use xlink:href="#1" y="13.026"/><use xlink:href="#11" y="15.197"/></svg><svg x="10017"><use xlink:href="#a"/><use xlink:href="#b" x="24.996" y="15.172"/><use xlink:href="#1" y="2.171"/><use xlink:href="#6" y="4.342"/><use xlink:href="#7" y="6.513"/><use xlink:href="#8" y="8.684"/><use xlink:href="#1" y="13.026"/><use xlink:href="#11" y="15.197"/></svg><svg x="10176"><use xlink:href="#a"/><use xlink:href="#b" x="-.004" y="17.343"/><use xlink:href="#1" y="2.171"/><use xlink:href="#6" y="4.342"/><use xlink:href="#7" y="6.513"/><use xlink:href="#8" y="8.684"/><use xlink:href="#1" y="13.026"/><use xlink:href="#11" y="15.197"/></svg><svg x="10335"><use xlink:href="#a"/><use xlink:href="#b" x="-.004" y="17.343"/><use xlink:href="#1" y="2.171"/><use xlink:href="#6" y="4.342"/><use xlink:href="#7" y="6.513"/><use xlink:href="#8" y="8.684"/><use xlink:href="#1" y="13.026"/><use xlink:href="#11" y="15.197"/></svg><svg x="10494"><use xlink:href="#a"/><use xlink:href="#b" x="-.004" y="17.343"/><use xlink:href="#1" y="2.171"/><use xlink:href="#6" y="4.342"/><use xlink:href="#7" y="6.513"/><use xlink:href="#8" y="8.684"/><use xlink:href="#1" y="13.026"/><use xlink:href="#11" y="15.197"/></svg><svg x="10653"><use xlink:href="#a"/><use xlink:href="#b" x="-.004" y="17.343"/><use xlink:href="#1" y="2.171"/><use xlink:href="#6" y="4.342"/><use xlink:href="#7" y="6.513"/><use xlink:href="#8" y="8.684"/><use xlink:href="#1" y="13.026"/><use xlink:href="#11" y="15.197"/></svg><svg x="10812"><use xlink:href="#a"/><use xlink:href="#b" x="1.996" y="21.685"/><use xlink:href="#1" y="2.171"/><use xlink:href="#6" y="4.342"/><use xlink:href="#7" y="6.513"/><use xlink:href="#8" y="8.684"/><use xlink:href="#1" y="13.026"/><use xlink:href="#11" y="15.197"/><use xlink:href="#1" y="19.539"/><use xlink:href="#2" y="21.71"/></svg><svg x="10971"><use xlink:href="#a"/><use xlink:href="#b" x="1.996" y="21.685"/><use xlink:href="#1" y="2.171"/><use xlink:href="#6" y="4.342"/><use xlink:href="#7" y="6.513"/><use xlink:href="#8" y="8.684"/><use xlink:href="#1" y="13.026"/><use xlink:href="#11" y="15.197"/><use xlink:href="#1" y="19.539"/><use xlink:href="#2" y="21.71"/></svg><svg x="11130"><use xlink:href="#a"/><use xlink:href="#b" x="1.996" y="21.685"/><use xlink:href="#1" y="2.171"/><use xlink:href="#6" y="4.342"/><use xlink:href="#7" y="6.513"/><use xlink:href="#8" y="8.684"/><use xlink:href="#1" y="13.026"/><use xlink:href="#11" y="15.197"/><use xlink:href="#1" y="19.539"/><use xlink:href="#2" y="21.71"/></svg><svg x="11289"><use xlink:href="#a"/><use xlink:href="#b" x="-.004" y="23.856"/><use xlink:href="#1" y="2.171"/><use xlink:href="#6" y="4.342"/><use xlink:href="#7" y="6.513"/><use xlink:href="#8" y="8.684"/><use xlink:href="#1" y="13.026"/><use xlink:href="#11" y="15.197"/><use xlink:href="#1" y="19.539"/><use xlink:href="#2" y="21.71"/></svg></svg></g></g></svg></svg>